# xmcd
#
# Track frame offsets:
#	150
#	17027
#	35679
#	51792
#	69786
#	84245
#	97511
#	111476
#	133718
#	151751
#	170511
#	186054
#	206519
#	224625
#
# Disc length: 3292 seconds
#
# Revision: 0
# Processed by: cddbd v1.5.2PL0 Copyright (c) Steve Scherf et al.
# Submitted via: EasyCDDAExtractor 10.0.6.1
#
DISCID=b50cda0e
DTITLE=Anmatino - Kahte südant
DYEAR=2007
DGENRE=Pop
TTITLE0=Koos me nüüd
TTITLE1=Kahte südant
TTITLE2=Siis
TTITLE3=Kus on see täht
TTITLE4=Üks päikesekiir
TTITLE5=Hüüan sulle
TTITLE6=Tik-Tak
TTITLE7=On siin üks pilt
TTITLE8=Tormakaid tundeid
TTITLE9=Pisarad vihmas
TTITLE10=Öös
TTITLE11=Andesta vaid
TTITLE12=Leidsin
TTITLE13=Onsiin üks pilt (dance)
EXTD=
EXTT0=
EXTT1=
EXTT2=
EXTT3=
EXTT4=
EXTT5=
EXTT6=
EXTT7=
EXTT8=
EXTT9=
EXTT10=
EXTT11=
EXTT12=
EXTT13=
PLAYORDER=
